<?xml version="1.0" standalone="no"?>
<!DOCTYPE svg PUBLIC "-//W3C//DTD SVG 1.1//EN" "http://www.w3.org/Graphics/SVG/1.1/DTD/svg11.dtd" >
<!--
2013-9-30: Created.
-->
<svg>
<metadata>
Created by iconfont
</metadata>
<defs>

<font id="iconfont" horiz-adv-x="1024" >
  <font-face
    font-family="iconfont"
    font-weight="500"
    font-stretch="normal"
    units-per-em="1024"
    ascent="896"
    descent="-128"
  />
    <missing-glyph />
    
    <glyph glyph-name="x" unicode="x" horiz-adv-x="1001"
d="M281 543q-27 -1 -53 -1h-83q-18 0 -36.5 -6t-32.5 -18.5t-23 -32t-9 -45.5v-76h912v41q0 16 -0.5 30t-0.5 18q0 13 -5 29t-17 29.5t-31.5 22.5t-49.5 9h-133v-97h-438v97zM955 310v-52q0 -23 0.5 -52t0.5 -58t-10.5 -47.5t-26 -30t-33 -16t-31.5 -4.5q-14 -1 -29.5 -0.5
t-29.5 0.5h-32l-45 128h-439l-44 -128h-29h-34q-20 0 -45 1q-25 0 -41 9.5t-25.5 23t-13.5 29.5t-4 30v167h911zM163 247q-12 0 -21 -8.5t-9 -21.5t9 -21.5t21 -8.5q13 0 22 8.5t9 21.5t-9 21.5t-22 8.5zM316 123q-8 -26 -14 -48q-5 -19 -10.5 -37t-7.5 -25t-3 -15t1 -14.5
t9.5 -10.5t21.5 -4h37h67h81h80h64h36q23 0 34 12t2 38q-5 13 -9.5 30.5t-9.5 34.5q-5 19 -11 39h-368zM336 498v228q0 11 2.5 23t10 21.5t20.5 15.5t34 6h188q31 0 51.5 -14.5t20.5 -52.5v-227h-327z" />
    

    
    <glyph glyph-name="gerenzhongxin" unicode="&#58908;" d="M511.999488-137.363116c-59.034535 0-116.314099 11.567453-170.247452 34.378995-52.083216 22.028713-98.855472 53.561893-139.015124 93.722568-40.159652 40.159652-71.692832 86.930885-93.721545 139.015124-22.811542 53.933353-34.378995 111.212918-34.378995 170.247452 0 59.034535 11.56643 116.315122 34.378995 170.248476 22.028713 52.083216 53.561893 98.854449 93.721545 139.015124 40.160675 40.160675 86.931908 71.692832 139.015124 93.721545 53.933353 22.811542 111.212918 34.378995 170.247452 34.378995 59.034535 0 116.314099-11.56643 170.247452-34.378995 52.083216-22.028713 98.855472-53.561893 139.015124-93.721545 40.160675-40.160675 71.693856-86.931908 93.722568-139.015124 22.811542-53.933353 34.378995-111.213941 34.378995-170.248476 0-59.034535-11.567453-116.314099-34.378995-170.247452-22.028713-52.083216-53.561893-98.855472-93.722568-139.015124-40.159652-40.160675-86.930885-71.693856-139.015124-93.722568C628.313587-125.796686 571.034023-137.363116 511.999488-137.363116zM511.999488 696.430868c-218.59253 0-396.430868-177.838338-396.430868-396.430868s177.838338-396.430868 396.430868-396.430868S908.430356 81.40747 908.430356 300 730.592019 696.430868 511.999488 696.430868zM511.999488 199.29132c-100.670817 0-182.573175 81.902358-182.573175 182.573175 0 100.670817 81.902358 182.573175 182.573175 182.573175 100.670817 0 182.573175-81.902358 182.573175-182.573175C694.572664 281.193679 612.670306 199.29132 511.999488 199.29132zM511.999488 523.505423c-78.100776 0-141.640927-63.540152-141.640927-141.640927s63.540152-141.640927 141.640927-141.640927S653.640416 303.76372 653.640416 381.864496 590.100264 523.505423 511.999488 523.505423zM189.667246 15.093135c-3.125177 0-6.297426 0.717338-9.273201 2.233877-10.07138 5.130857-14.077623 17.454534-8.946766 27.525913 19.269879 37.829584 44.382836 72.208579 74.638931 102.18531 30.268374 29.989011 64.893986 54.783721 102.913904 73.699536 10.119475 5.036713 22.405289 0.911766 27.438932-9.207709 5.034666-10.120498 0.912789-22.405289-9.207709-27.438932-68.168566-33.914414-124.746142-89.960895-159.311379-157.817352C204.305641 19.178173 197.119985 15.093135 189.667246 15.093135zM850.445734 36.027933c-6.994298 0-13.806447 3.586688-17.629519 10.041704-38.706557 65.363683-98.454336 117.615745-168.234609 147.129942-10.410094 4.403287-15.280008 16.411785-10.876722 26.821879 4.402263 10.410094 16.411785 15.282055 26.821879 10.876722 39.044248-16.515139 75.074859-39.10974 107.088994-67.157539 31.839149-27.895327 58.896388-60.468187 80.420611-96.814999 5.759167-9.725502 2.543939-22.278399-7.182586-28.037567C857.584318 36.948909 853.99149 36.027933 850.445734 36.027933z"  horiz-adv-x="1024" />

    
    <glyph glyph-name="jian" unicode="&#58889;" d="M587.229378 458.009597 580.722174 458.009597 76.975139 458.009597 76.975139 314.081581 580.722174 314.081581 587.229378 314.081581 940.542216 314.081581 940.542216 458.009597Z"  horiz-adv-x="1024" />

    
    <glyph glyph-name="dingdan" unicode="&#58880;" d="M680.997995 390.052856 305.296241 390.052856c-10.247388 0-18.554588 8.3072-18.554588 18.554588s8.3072 18.554588 18.554588 18.554588l375.702778 0c10.247388 0 18.554588-8.3072 18.554588-18.554588S691.245384 390.052856 680.997995 390.052856zM680.997995 260.121622 305.296241 260.121622c-10.247388 0-18.554588 8.3072-18.554588 18.554588s8.3072 18.554588 18.554588 18.554588l375.702778 0c10.247388 0 18.554588-8.3072 18.554588-18.554588S691.245384 260.121622 680.997995 260.121622zM493.146607 129.96219 305.296241 129.96219c-10.375302 0-18.784832 8.410554-18.784832 18.784832s8.410554 18.784832 18.784832 18.784832l187.851389 0c10.374278 0 18.784832-8.410554 18.784832-18.784832S503.521908 129.96219 493.146607 129.96219zM511.933485 718.722434c10.132778 0 18.377556-8.243755 18.377556-18.376533 0-10.133801-8.243755-18.378579-18.377556-18.378579s-18.377556 8.244778-18.377556 18.378579C493.556952 710.478679 501.800707 718.722434 511.933485 718.722434M511.933485 755.47857c-30.448476 0-55.132668-24.683169-55.132668-55.132668 0-30.448476 24.683169-55.134715 55.132668-55.134715s55.132668 24.685215 55.132668 55.134715C567.066153 730.794377 542.382984 755.47857 511.933485 755.47857L511.933485 755.47857zM723.685213 551.837566 300.18278 551.837566c-5.26184 0-10.282181 2.211365-13.834076 6.093788-3.551896 3.882424-5.308913 9.078773-4.841262 14.320147l11.248182 126.155235c0.862647 9.671267 8.965186 17.083074 18.675338 17.083074l63.158459 0c3.869121 30.693046 17.245779 58.594513 38.623669 79.972403 25.660426 25.660426 60.71992 39.792285 98.721419 39.792285 38.002522 0 73.062016-14.131859 98.722442-39.792285 21.378913-21.37789 34.754548-49.28038 38.622646-79.972403l65.033156 0c9.815553 0 17.97028-7.570419 18.696828-17.359366l9.373485-126.155235c0.38681-5.199419-1.410116-10.32516-4.957919-14.146185S728.898959 551.837566 723.685213 551.837566zM320.677557 589.334575l382.814756 0-6.588045 88.657202-65.206094 0c-10.354835 0-18.749016 8.394181-18.749016 18.749016 0 57.588603-43.427068 101.015671-101.015671 101.015671-57.58758 0-101.015671-43.427068-101.015671-101.015671 0-10.354835-8.394181-18.749016-18.749016-18.749016l-63.587224 0L320.677557 589.334575zM741.332129-62.602547 282.535865-62.602547c-49.257867 0-89.332585 40.075741-89.332585 89.334631L193.20328 591.4037c0 49.25889 40.074717 89.333608 89.332585 89.333608l8.134261 0c10.354835 0 18.749016-8.394181 18.749016-18.749016s-8.394181-18.749016-18.749016-18.749016l-8.134261 0c-28.581965 0-51.834552-23.25361-51.834552-51.836599l0-564.671617c0-28.582989 23.25361-51.835575 51.834552-51.835575l458.796264 0c28.581965 0 51.833529 23.25361 51.833529 51.835575L793.165658 591.4037c0 28.582989-23.252587 51.836599-51.833529 51.836599l-17.648962 0c-10.354835 0-18.749016 8.394181-18.749016 18.749016s8.394181 18.749016 18.749016 18.749016l17.648962 0c49.257867 0 89.332585-40.074717 89.332585-89.333608l0-564.671617C830.664713-22.526807 790.589996-62.602547 741.332129-62.602547z"  horiz-adv-x="1024" />

    
    <glyph glyph-name="fuwu-copy" unicode="&#58886;" d="M721.079 280.267c-12.788 0-24.035-6.269-31.097-15.817-42.080-54.213-105.997-89.144-177.983-89.144-70.998 0-134.161 33.961-176.26 86.897-6.935 10.758-18.963 17.92-32.716 17.92-21.522 0-38.967-17.446-38.967-38.967 0-10.417 4.147-19.826 10.805-26.818 52.931-74.017 139.186-122.511 237.138-122.511 99.192 0 186.532 49.611 239.272 125.217h-0.33c5.483 6.688 8.91 15.127 8.91 24.45 0.001 21.413-17.357 38.773-38.77 38.773zM678.956 550.957c-46.103 0-83.479-37.373-83.479-83.479 0-46.104 37.375-83.479 83.479-83.479s83.479 37.374 83.479 83.479c0 46.105-37.375 83.479-83.479 83.479zM512 864c-265.099 0-480-214.901-480-480 0-265.098 214.901-480 480-480 265.098 0 480 214.902 480 480 0 265.099-214.902 480-480 480zM512-12.521c-218.993 0-396.521 177.529-396.521 396.521s177.529 396.521 396.521 396.521 396.521-177.53 396.521-396.521-177.53-396.521-396.521-396.521zM345.043 384c46.103 0 83.479 37.374 83.479 83.479 0 46.105-37.375 83.479-83.479 83.479s-83.479-37.373-83.479-83.479c0.001-46.104 37.375-83.479 83.479-83.479z"  horiz-adv-x="1024" />

    
    <glyph glyph-name="xinlang-copy" unicode="&#58895;" d="M728.52 393.52c-34.995 6.785-17.956 25.614-17.956 25.614s34.236 56.488-6.794 97.535c-50.876 50.85-174.45-6.476-174.45-6.476-47.206-14.664-34.676 6.706-27.988 42.98 0 42.776-14.664 115.156-140.392 72.38-125.594-42.97-233.471-193.562-233.471-193.562-74.991-100.086-65.030-177.433-65.030-177.433 18.732-170.753 200.162-217.641 341.286-228.742 148.447-11.63 348.847 51.176 409.579 180.256 60.768 129.274-49.65 180.424-84.786 187.447zM414.721 73.95c-147.414-6.865-266.55 67.050-266.55 165.38 0 98.488 119.135 177.433 266.55 184.236 147.45 6.812 266.832-53.982 266.832-152.224 0-98.33-119.383-190.658-266.832-197.391zM385.294 358.721c-148.218-17.347-131.1-156.203-131.1-156.203s-1.526-43.976 39.742-66.362c86.726-46.968 176.029-18.547 221.17 39.733 45.133 58.288 18.67 200.038-129.812 182.833zM347.883 163.826c-27.636-3.247-49.958 12.733-49.958 35.867 0 23.074 19.808 47.206 47.497 50.083 31.8 3.045 52.508-15.274 52.508-38.436 0-23.056-22.438-44.356-50.047-47.514zM435.288 238.252c-9.38-6.988-20.894-6.026-25.836 2.374-5.18 8.206-3.229 21.362 6.23 28.244 10.976 8.179 22.403 5.806 27.362-2.374 4.986-8.391 1.412-21-7.755-28.244zM800.732 453.626c11.93 0 22.112 8.841 23.798 20.383 0.203 0.864 0.326 1.632 0.326 2.594 18.106 162.75-133.386 134.753-133.386 134.753-13.456 0-24.221-10.888-24.221-24.476 0-13.332 10.764-24.195 24.221-24.195 108.821 23.983 84.803-84.794 84.803-84.794 0-13.482 10.942-24.265 24.459-24.265zM783.076 737.752c-52.394 12.274-106.244 1.695-121.341-1.217-1.156-0.097-2.268-1.164-3.344-1.386-0.502-0.115-0.821-0.636-0.821-0.636-14.912-4.226-25.783-18-25.783-34.279 0-19.386 15.714-35.347 35.347-35.347 0 0 19.050 2.558 31.994 7.606 12.82 5.17 121.28 3.864 175.192-86.638 29.374-66.035 12.908-110.224 10.862-117.335 0 0-6.997-17.153-6.997-34.058 0-19.492 15.706-31.73 35.179-31.73 16.297 0 29.964 2.188 33.98 29.744h0.212c57.874 192.82-70.756 283.412-164.48 305.276z"  horiz-adv-x="1024" />

    
    <glyph glyph-name="37" unicode="&#58898;" d="M882.959 594.927h-76.852c24.004 27.103 37.184 58.787 38.535 89.089 1.173 26.319-6.449 50.218-22.043 69.115-16.358 19.82-40.331 32.447-69.326 36.512-57.546 8.066-121.794-24.854-190.998-97.841-20.433-21.551-38.194-43.339-51.925-61.364-13.731 18.025-31.491 39.813-51.925 61.364-69.205 72.987-133.466 105.903-190.998 97.841-28.996-4.065-52.969-16.691-69.327-36.512-15.594-18.897-23.217-42.796-22.043-69.115 1.351-30.301 14.531-61.985 38.535-89.089h-85.829c-39.397 0-71.631-32.234-71.631-71.631v-75.796c0-37.483 29.184-68.458 65.947-71.384v-335.862c0-39.397 32.234-71.631 71.631-71.631h622.301c39.397 0 71.631 32.234 71.631 71.631v335.862c36.764 2.925 65.947 33.901 65.947 71.384v75.796c0.001 39.397-32.233 71.631-71.63 71.631zM882.959 523.167v-75.54c-0.038-0.044-0.084-0.091-0.129-0.128h-341.153v75.796h341.153c0.045-0.037 0.092-0.084 0.129-0.128zM743.328 718.704c20.836-2.921 30.568-13.224 29.754-31.497-1.57-35.203-43.554-86.775-131.978-91.215-2.432-0.122-4.795-0.486-7.067-1.064h-60.577c11.615 14.848 25.744 31.774 41.487 48.315 50.602 53.175 96.201 79.973 128.381 75.462zM379.595 595.991c-88.424 4.44-130.408 56.012-131.978 91.215-0.815 18.273 8.917 28.577 29.754 31.497 32.193 4.516 77.779-22.288 128.382-75.462 15.743-16.542 29.873-33.468 41.487-48.315h-60.578c-2.273 0.579-4.635 0.942-7.067 1.064zM128.764 523.167c0.037 0.045 0.084 0.091 0.128 0.128h341.154v-75.796l-341.154 0.001c-0.044 0.037-0.091 0.083-0.128 0.128v75.539zM194.711 40.382v331.137h275.335v-331.265h-275.207c-0.044 0.037-0.091 0.084-0.128 0.128zM817.011 40.382c-0.037-0.044-0.084-0.091-0.128-0.128h-275.206v331.265h275.334v-331.137z"  horiz-adv-x="1024" />

    
    <glyph glyph-name="search" unicode="&#59008;" d="M894.387 76.986l-239.232 242.404c52.429 55.127 72.761 122.872 72.761 205.054 0 169.146-130.61 305.959-298.596 305.959-167.963 0-304.634-137.617-304.634-306.764 0-169.147 134.541-299.306 302.505-299.306 70.133 0 136.738 16.78 188.27 57.020l240.959-244.131c4.405-4.451 10.181-6.678 15.955-6.678 5.776 0 15.337 6.817 19.74 11.266 8.806 8.856 11.079 26.275 2.272 35.174zM172.832 527.428c0 140.363 113.378 254.499 252.724 254.499 139.368 0 252.749-114.136 252.749-254.499 0-140.317-113.381-254.5-252.749-254.5-139.346-0-252.724 114.183-252.724 254.5z"  horiz-adv-x="1024" />

    
    <glyph glyph-name="iconxiangyou" unicode="&#58926;" d="M350.782713 33.321152c-11.114129 0-22.230304 4.297886-30.680766 12.957103-16.939811 17.272385-16.939811 45.236274 0 62.509682l287.60737 292.830325L320.101947 694.494637c-16.939811 17.264199-16.939811 45.255717 0 62.500473 16.975627 17.265222 44.419675 17.265222 61.395302 0l318.30451-324.139401c16.940834-17.265222 16.940834-45.255717 0-62.500473L381.497249 46.250626C373.008924 37.619038 361.894795 33.321152 350.782713 33.321152L350.782713 33.321152zM350.782713 33.321152"  horiz-adv-x="1024" />

    
    <glyph glyph-name="daishouhuo" unicode="&#58943;" d="M1121.637838 781.068624 1121.637838 192.433087C1121.637838 77.577372 1021.139088 48.863444 1021.139088 48.863444 1012.524909-172.233807 820.141587-123.420128 820.141587-123.420128 696.671694-77.477843 719.642837 48.863444 719.642837 48.863444L403.789622 48.863444C380.818479-117.677343 245.863014-94.7062 245.863014-94.7062 110.907549-94.7062 102.293371 34.506479 102.293371 34.506479L30.508549 34.506479C4.666013 37.377872 1.794621 63.220408 1.794621 63.220408 1.794621 63.220408 1.794621 327.833617 1.794621 442.244266-6.819558 487.798914 20.329461 520.848646 32.331884 534.918471 62.668149 575.376396 109.715921 637.283626 145.364264 680.569874 188.27723 742.11818 231.50605 737.997731 231.50605 737.997731L432.50355 737.997731C418.146586 904.538517 533.002301 895.924339 533.002301 895.924339L992.425159 895.924339C1138.866195 898.795732 1121.637838 781.068624 1121.637838 781.068624ZM870.390962-51.635307C921.932464-51.635307 963.71123-9.856541 963.71123 41.684961 963.71123 93.226463 921.932464 135.005229 870.390962 135.005229 818.84946 135.005229 777.070694 93.226463 777.070694 41.684961 777.070694-9.856541 818.84946-51.635307 870.390962-51.635307ZM245.863014-37.278342C301.367038-37.278342 346.361764 7.716384 346.361764 63.220408 346.361764 118.724432 301.367038 163.719158 245.863014 163.719158 190.35899 163.719158 145.364264 118.724432 145.364264 63.220408 145.364264 7.716384 190.35899-37.278342 245.863014-37.278342ZM1064.209981 206.790051 1064.209981 781.068624C1061.338588 827.01091 1006.782123 838.496481 1006.782123 838.496481L576.073194 838.496481C495.674193 844.239267 504.288372 781.068624 504.288372 781.068624L504.288372 694.926838C504.288372 654.727338 475.574443 666.21291 475.574443 666.21291L260.219978 666.21291C231.50605 671.955695 202.792121 651.855945 202.792121 651.855945L73.579442 479.572373C53.479692 468.086802 59.222478 422.144516 59.222478 422.144516L59.222478 106.291301 102.293371 106.291301C145.364264 241.246766 274.576943 221.147015 274.576943 221.147015 383.689872 203.918658 403.789622 106.291301 403.789622 106.291301L733.999801 106.291301C749.993459 171.802129 819.538595 198.836293 891.926409 192.433087 989.783478 179.684102 1006.782123 106.291301 1006.782123 106.291301 1075.695552 114.905479 1064.209981 206.790051 1064.209981 206.790051ZM288.933907 393.430587 131.007299 393.430587C131.007299 393.430587 99.421978 419.273123 131.007299 465.215409L260.219978 465.215409 260.219978 580.071124C260.219978 580.071124 280.319728 640.370374 332.0048 594.428088L332.0048 436.50148C332.0048 436.50148 334.876193 407.787552 288.933907 393.430587Z"  horiz-adv-x="1123" />

    
    <glyph glyph-name="qiandao" unicode="&#58946;" d="M924.701948 753.472889l-66.406432 0L721.249233 753.472889l-1.532913 4.14439c-2.972705 8.036024-10.633175 13.365402-19.194154 13.365402-0.035816 0-0.072655 0-0.10847 0l-93.617168-0.49221 0.345877 41.234123c0.046049 5.457292-2.089591 10.706853-5.933129 14.582113-3.842515 3.875261-9.073656 6.054903-14.531971 6.054903l-148.604526 0c-5.495154 0-10.758018-2.209318-14.606673-6.130627-3.848655-3.921309-5.958712-9.226129-5.855358-14.719236l0.810459-43.129286-96.482425 0.192382c-0.014326 0-0.026606 0-0.041956 0-8.577353 0-16.248056-5.350868-19.208481-13.404288l-0.624217-1.698688L165.527452 753.471866 99.12102 753.471866c-19.324114 0-35.045167-15.280008-35.045167-34.06177L64.075853-27.669944c0-18.781762 15.721053-34.06177 35.045167-34.06177l825.579905 0c19.324114 0 35.044144 15.280008 35.044144 34.06177L959.745069 719.411119C959.746092 738.192881 944.025039 753.472889 924.701948 753.472889zM336.167854 727.614965l103.066377-0.205685c0.014326 0 0.027629 0 0.040932 0 5.486968 0 10.744715 2.203178 14.592346 6.116301 3.857864 3.922333 5.973038 9.233292 5.869684 14.733563l-0.810459 43.171242 107.111506 0-0.346901-41.342594c-0.046049-5.476735 2.104941-10.742668 5.970992-14.620999 3.840468-3.852748 9.05626-6.01704 14.494109-6.01704 0.035816 0 0.071631 0 0.107447 0l100.034321 0.525979 21.328771-57.659211-391.532301 0.697895L336.167854 727.614965zM173.759951 712.540641l113.255437 0-19.440771-52.878324c-2.305509-6.271844-1.404999-13.275351 2.415003-18.759249 3.818979-5.483898 10.075473-8.757454 16.757662-8.769734l450.255751-0.802272c0.01228 0 0.023536 0 0.035816 0 6.688329 0 12.957103 3.26844 16.785292 8.756431 3.834328 5.497201 4.734838 12.524245 2.408863 18.810415l-19.84293 53.641711 113.670899 0 0-658.280598L173.759951 54.25902 173.759951 712.540641zM918.813844-20.799466 105.008101-20.799466 105.008101 712.540641l27.819602 0 0-666.469094c0-18.055215 14.669094-32.743752 32.700773-32.743752l692.768063 0c18.029632 0 32.698726 14.688537 32.698726 32.743752l0 666.469094 27.819602 0L918.814868-20.799466zM386.294508 281.959999 373.649514 140.329305 496.726643 213.433276 498.35984 216.06215 387.925658 284.588873ZM570.960345 579.559954 402.609079 308.252829 513.043261 239.728152 679.930175 508.675534Z"  horiz-adv-x="1024" />

    
    <glyph glyph-name="liwu" unicode="&#59069;" d="M979.595674 661.857309 802.617937 661.857309c18.218944 39.994899 19.398816 84.546581-2.128477 121.821533-38.455847 66.575278-132.609227 84.20582-210.287377 39.361473-29.912263-17.268292-52.119031-41.534975-66.895573-68.366064-0.77055 0.294712-1.336438 0.860601-2.130524 1.065262-0.496304 0.137123-0.995677 0.023536-1.494027 0.113587-1.292436 0.271176-2.561335 0.271176-3.875261 0.318248-1.1328-0.023536-2.243087-0.046049-3.353374-0.227174-1.111311-0.137123-2.200108 0.113587-3.331885-0.204661-0.794086-0.204661-1.358951-0.77055-2.130524-1.065262-14.774495 26.831089-36.980239 51.097772-66.892503 68.342528-77.68122 44.867884-171.833577 27.237341-210.287377-39.337937-21.505803-37.274952-20.35049-81.826634-2.130524-121.821533L51.43137 661.857309c-25.629727 0-46.407959-20.779256-46.407959-46.431495l0-92.793406c0-25.65224 20.779256-46.407959 46.407959-46.407959l0-510.490623c0-25.628704 20.779256-46.407959 46.407959-46.407959l835.347362 0c25.628704 0 46.407959 20.779256 46.407959 46.407959L979.594651 476.225471c25.628704 0 46.407959 20.75572 46.407959 46.407959l0 92.793406C1026.003634 641.078053 1005.223355 661.857309 979.595674 661.857309zM270.01162 760.475374c25.628704 44.36851 91.38943 54.406121 146.884348 22.366404 35.508725-20.50808 57.55688-53.18327 62.451354-85.72543-4.304026-12.078083-8.995885-23.814382-13.959943-35.259038L280.57214 661.857309C258.455423 693.129546 252.812913 730.676697 270.01162 760.475374zM51.43137 522.633431l0 92.793406 391.56914 0c-18.853393-35.215036-39.566134-66.303079-59.598376-92.793406L51.43137 522.633431zM492.309542-34.265152 97.839329-34.265152 97.839329 197.775668l394.46919 0L492.308519-34.265152zM492.309542 244.183628 97.839329 244.183628 97.839329 476.225471 345.447706 476.225471c-30.228465-34.036187-52.730968-53.184293-53.296857-53.659107-9.81146-8.202822-11.147898-22.842241-2.945075-32.676214 3.194762-3.828188 7.318686-6.367011 11.783371-7.54586 7.04751-1.902326 14.84101-0.431835 20.869307 4.554736 3.149736 2.628874 40.630373 34.444487 84.704171 89.326445l85.74692 0L492.309542 244.183628zM492.309542 522.633431l-51.280944 0c17.744129 25.765827 35.281551 54.791907 51.280944 86.834694L492.309542 522.633431zM613.406574 782.841777c55.494918 32.039717 121.252575 22.025643 146.882302-22.366404 17.222243-29.798676 11.558244-67.344804-10.55745-98.617042L564.912094 661.858332c-4.963035 11.444657-9.652847 23.180955-13.959943 35.281551C555.848671 729.68102 577.920362 762.357234 613.406574 782.841777zM538.717502 608.040612c15.815197-31.453363 33.083489-60.027142 50.554396-85.407182l-50.554396 0L538.717502 608.040612zM933.187715-34.265152 538.717502-34.265152 538.717502 197.775668l394.46919 0L933.186691-34.265152zM933.187715 244.183628 538.717502 244.183628 538.717502 476.225471l85.021395 0c44.073798-54.881958 81.553411-86.697571 84.704171-89.326445 6.02625-4.986571 13.82282-6.458085 20.869307-4.554736 4.464685 1.178849 8.588609 3.717671 11.805884 7.54586 8.179286 9.833973 6.842849 24.473391-2.969635 32.676214-0.565888 0.475837-23.043832 19.623943-53.274344 53.659107l248.312412 0L933.186691 244.183628zM979.595674 522.633431 646.919852 522.633431c-20.055778 26.489304-40.765449 57.57837-59.617819 92.793406l392.293641 0L979.595674 522.633431z"  horiz-adv-x="1027" />

    
    <glyph glyph-name="huoyan" unicode="&#59044;" d="M870.910323 396.768815c-47.344285 108.763123-96.296183 167.759795-113.824395 214.894302-18.629289 50.094932-0.257873 92.758614-0.257873 92.758614-38.865169 7.773034-67.75515-29.323862-89.562828-66.955948-13.495362-23.287379-31.122835-164.43405-58.719356-199.087291-4.699022-5.900384-14.033621-4.457522-16.653285 2.616594C497.625618 695.545572 548.161594 831.784466 548.161594 831.784466c-148.282185-55.963593-185.179536-200.730721-192.228069-223.143173-13.617136-43.297109-7.858992-207.925586-7.858992-207.925586-0.585331-11.257391-15.884782-14.156418-20.549012-3.895727 0 0-39.07597 96.322789-43.623543 149.183717-3.721765 43.271526-4.036943 34.257222-4.036943 34.257222C212.698287 518.151349 138.129964 377.508145 138.129964 283.029354c0-189.740412 167.386288-343.555613 373.869013-343.555613s373.870036 153.815201 373.870036 343.555613C885.869013 323.503161 885.869013 362.403123 870.910323 396.768815L870.910323 396.768815z"  horiz-adv-x="1024" />

    
    <glyph glyph-name="gouwuche" unicode="&#58989;" d="M1014.15424 581.9648l-83.86048-339.83488c0-62.56128-50.048-113.28-111.80032-113.28H300.97408c-61.75232 0-111.81056 50.71872-111.81056 113.28L133.26336 581.9648h0.28672L77.35808 751.88736H34.93888c-15.44192 0-27.94496 12.67712-27.94496 28.31872 0 15.63648 12.50816 28.31872 27.94496 28.31872h83.62496l69.74464-226.55488h825.84576v-0.00512zM198.48192 525.32736l46.58176-283.19744c0-31.27808 25.03168-56.63744 55.90528-56.63744h517.52448c30.86848 0 55.89504 25.35424 55.89504 56.63744l69.87776 283.19744H198.48192z m190.35136-453.11488c36.95616 0 66.91328-30.35136 66.91328-67.79392s-29.96224-67.79392-66.91328-67.79392c-36.95616 0-66.92352 30.35136-66.92352 67.79392s29.96224 67.79392 66.92352 67.79392z m395.77088 0c36.95104 0 66.90304-30.35136 66.90304-67.79392s-29.95712-67.79392-66.90304-67.79392c-36.9664 0-66.92352 30.35136-66.92352 67.79392s29.95712 67.79392 66.92352 67.79392z"  horiz-adv-x="1024" />

    
    <glyph glyph-name="gouwuche1" unicode="&#58941;" d="M929.726982 60.543365a94.270347 94.270347 0 1 1 94.270346-94.270347 94.270347 94.270347 0 0 1-94.270346 94.270347z m-511.807834 0a94.270347 94.270347 0 1 1 94.270347-94.270347 94.270347 94.270347 0 0 1-94.652008 94.270347zM1287.343641 641.431898a26.334631 26.334631 0 0 1-22.518018 12.213162h-1030.485571L190.830661 874.626966A27.479615 27.479615 0 0 1 164.49603 896H27.097954a27.097954 27.097954 0 0 1 0-53.814246h114.498397l147.32127-732.78974a27.479615 27.479615 0 0 1 26.334631-21.373034h728.973126a27.097954 27.097954 0 0 1 24.807986 16.029776L1290.01527 615.860589a27.097954 27.097954 0 0 1-2.671629 25.571309z"  horiz-adv-x="1292" />

    
    <glyph glyph-name="letter-g-outline" unicode="&#58881;" d="M512 784.298c-220.715 0-400.298-179.585-400.298-400.299 0-220.714 179.583-400.297 400.298-400.297 220.712 0 400.297 179.584 400.297 400.297 0 220.715-179.584 400.299-400.297 400.299zM512 29.388c-195.546 0-354.611 159.069-354.611 354.611 0 195.545 159.066 354.611 354.611 354.611 195.544 0 354.611-159.067 354.611-354.611 0.001-195.543-159.068-354.611-354.611-354.611zM415.978 532.232c21.437 25.96 50.405 38.895 86.857 38.895 35.188 0 61.283-8.231 78.244-24.648 16.983-16.463 28.176-38.76 33.58-66.89h57.8c-6.445 42.921-23.428 76.705-50.925 101.398-27.476 24.693-67.049 36.996-118.699 36.996-53.321 0-96.175-17.096-128.558-51.378-32.405-34.238-48.596-79.6-48.596-136.043v-92.806c0-56.444 17.343-101.806 52.033-136.18 34.668-34.373 79.6-51.559 134.8-51.559 43.102 0 77.837 6.875 104.181 20.624 26.344 13.749 44.933 28.945 55.765 45.589l-0 166.211h-160.895v-46.539h103.094v-104.972c-7.282-9.181-19.356-17.185-36.226-24.061-16.87-6.874-38.851-10.311-65.919-10.311-38.33 0-69.356 13.071-93.1 39.211-23.744 26.141-35.616 60.153-35.616 101.988v93.438c0.002 41.43 10.721 75.123 32.181 101.038z"  horiz-adv-x="1024" />

    
    <glyph glyph-name="bankuaifl" unicode="&#59251;" d="M389.38624 859.30496H105.6C69.96992 859.30496 40.96 830.30016 40.96 794.67008V510.9248c0-36.25984 28.38016-64.68096 64.64-64.68096h348.42624V794.67008c-0.00512 35.63008-29.00992 64.63488-64.64 64.63488z m21.71392-370.13504H105.6c-12.15488 0-21.71392 9.55904-21.71392 21.75488V794.67008a21.50912 21.50912 0 0 0 21.71392 21.71392h283.78624a21.50912 21.50912 0 0 0 21.71392-21.71392v-305.50016zM920.65792 859.30496h-283.78624c-35.63008 0-64.64-29.00992-64.64-64.64v-348.42624h348.42624c35.63008 0 64.64 29.00992 64.64 64.68096v283.7504c-0.00512 35.63008-29.00992 64.63488-64.64 64.63488z m21.71392-348.38016c0-12.19584-9.55904-21.75488-21.71392-21.75488h-305.50016V794.67008a21.50912 21.50912 0 0 0 21.71392 21.71392h283.78624a21.50912 21.50912 0 0 0 21.71392-21.71392V510.9248zM40.96 263.3984v-283.74528c0-36.25984 28.38016-64.68096 64.64-64.68096h283.78624c35.63008 0 64.64 29.00992 64.64 64.68096v348.42624H105.6C69.96992 328.07424 40.96 299.06944 40.96 263.3984z m370.14016-283.74528c0-12.19584-9.55904-21.75488-21.71392-21.75488H105.6c-12.15488 0-21.71392 9.55904-21.71392 21.75488v283.74528c0 12.19584 9.55904 21.75488 21.71392 21.75488h305.50016v-305.50016zM920.65792 328.07424h-348.42624v-348.42624c0-36.25984 28.38016-64.68096 64.64-64.68096h283.78624c35.63008 0 64.64 29.00992 64.64 64.68096v283.74528c-0.00512 36.26496-28.38016 64.68096-64.64 64.68096z m21.71392-348.42112c0-12.19584-9.55904-21.75488-21.71392-21.75488h-283.78624c-12.15488 0-21.71392 9.55904-21.71392 21.75488v305.50016h305.50016c12.15488 0 21.71392-9.55904 21.71392-21.75488v-283.74528z"  horiz-adv-x="1024" />

    
    <glyph glyph-name="zaixiankefu" unicode="&#58885;" d="M785.457-51.702c-12.202 0-23.945 3.537-33.972 10.233l-32.347 21.233c-1.648 0.893-4.029 2.346-6.41 4.613l-18.795 12.659c-72.477-9.832-143.169 2.449-205.069 35.678-11.4 6.124-15.681 20.34-9.546 31.74a23.402 23.402 0 0 0 31.752 9.558c55.354-29.726 119.223-39.878 184.672-29.314 5.86 0.95 11.904-0.389 16.826-3.697l28.844-19.401c0.961-0.652 1.9-1.385 2.77-2.175l33.171-21.794c4.372-2.942 9.111-3.239 16.368-0.904 4.143 2.907 6.57 7.371 6.57 12.236v59.772a23.446 23.446 0 0 0 10.37 19.458c65.083 43.701 103.931 112.275 103.931 183.436 0 16.734-1.9 33.045-5.632 48.486-3.365 13.77-8.47 27.711-15.109 41.401-5.654 11.641-0.801 25.674 10.851 31.328 11.675 5.643 25.662 0.801 31.317-10.84 8.104-16.666 14.308-33.755 18.497-50.798 4.624-19.104 6.959-39.134 6.959-59.577 0-82.893-42.488-162.432-114.301-215.073v-47.593c0-22.206-12.202-42.877-31.843-53.957a22.918 22.918 0 0 0-3.48-1.614c-9.385-3.423-18.015-5.094-26.394-5.094z m-36.192 64.373c0-0.011 0.023-0.023 0.023-0.034 0 0.011-0.023 0.023-0.023 0.034z m-8.173 8.516z m-458.945 17.81c-10.233 0-20.466 2.621-29.554 7.589-19.39 10.084-32.164 31.214-32.164 53.602v76.575c-98.071 67.498-156.217 172.23-156.217 282.56 0 197.366 181.971 357.933 405.629 357.933 223.681 0 405.652-160.567 405.652-357.933S693.522 101.39 469.841 101.39c-22.16 0-44.846 1.728-67.532 5.139l-36.147-23.934c-1.74-1.442-3.274-2.427-4.327-3.09l-46.838-30.87c-8.721-6.089-20.58-9.638-32.85-9.638z m187.694 731.375c-197.813 0-358.745-139.54-358.745-311.049 0-98.265 54.369-191.826 145.435-250.27a23.434 23.434 0 0 0 10.782-19.733v-89.131c0-4.956 3.022-9.981 7.326-12.236 6.044-3.297 12.476-1.58 14.033-0.527l46.632 30.767c0.71 0.446 1.007 0.641 1.053 0.641 0 0 0-0.023-0.023-0.057a21.017 21.017 0 0 0 2.587 2.003l45.098 29.886a23.55 23.55 0 0 0 16.895 3.571c23.19-3.96 46.38-5.963 68.929-5.963 197.835 0 358.768 139.54 358.768 311.049s-160.934 311.049-358.77 311.049zM335.326 117.85c0-0.011-0.023-0.023-0.023-0.034 0 0.011 0.023 0.022 0.023 0.034zM365.53 462.569c0-22.038-17.978-40.017-40.016-40.017s-40.017 17.979-40.017 40.017 17.979 40.016 40.017 40.016 40.016-17.978 40.016-40.016z m147.308-7.659c0-19.923-16.253-36.176-36.176-36.176-19.923 0-36.175 16.253-36.175 36.176 0 19.923 16.252 36.175 36.175 36.175s36.176-16.252 36.176-36.175z m133.168 0c0-19.923-16.253-36.176-36.175-36.176-19.923 0-36.176 16.253-36.176 36.176 0 19.923 16.253 36.175 36.176 36.175 19.921 0 36.175-16.252 36.175-36.175z"  horiz-adv-x="1024" />

    
    <glyph glyph-name="hui" unicode="&#58882;" d="M509.408 896.358c-280.631 0-508.225-227.474-508.225-508.225s227.474-508.225 508.225-508.225 508.225 227.474 508.225 508.225-227.596 508.225-508.225 508.225zM509.408-92.335c-265.35 0-480.35 215.121-480.35 480.35 0 265.35 215.121 480.35 480.35 480.35s480.35-215.121 480.35-480.35c0.114-265.231-215.006-480.35-480.35-480.35zM475.294 245.337c18.818-19.407 37.881-40.582 57.283-63.63l23.407 18.466c-17.292 19.407-37.286 39.874-59.986 61.751l-20.701-16.585zM685.248 224.166c19.754-22.702 41.641-49.633 65.632-80.687l23.996 18.466c-22.467 26.934-45.172 53.044-68.096 78.217l-21.524-15.992zM242.536 142.897c5.413-2.942 13.055-7.528 22.937-13.645 1.642-0.941 2.942-1.642 3.652-2.232 22.002 36.817 40.814 72.341 56.34 106.322l-26.816 11.41c-16.47-37.522-35.17-71.513-56.105-101.853zM619.85 172.184c-2.473-22.937-22.113-33.757-58.927-32.703h-105.271c-18.583 0-31.404 2.473-38.58 7.528-7.295 4.82-10.819 13.761-10.585 26.816v67.869h-29.64v-71.513c-1.526-39.988 22.113-59.517 70.927-58.335h120.091c45.636-0.941 71.864 15.41 78.682 48.806 3.299 12.117 6.232 27.754 8.706 46.932-9.643 2.823-19.407 6.348-29.051 10.585-2.119-20.228-4.231-35.517-6.348-45.981zM274.292 301.445c-9.174-0.233-15.877-0.233-20.347-0.233l3.059-29.64c172.191 5.058 321.094 8.469 446.949 10.353 5.058-4.702 12.584-11.994 22.58-22.113 10.239-10.239 17.998-17.998 23.172-23.172l22.348 20.701c-32.931 31.051-67.869 62.574-104.681 94.329l-21.169-17.88c12.82-10.819 23.407-20.111 31.522-27.874-38.694-0.585-89.28-1.062-151.608-1.642v47.989h198.536v162.786h-198.536v45.754h243.119v25.637h-243.119v49.164h-29.64v-49.164h-242.056v-25.637h242.056v-45.754h-197.952v-162.786h197.952v-48.576c-51.518-0.941-125.617-1.642-222.178-2.232zM526.111 489.868h169.138v-43.871h-169.138v43.871zM526.111 421.182h169.138v-43.871h-169.138v43.871zM327.926 489.868h168.666v-43.871h-168.666v43.871zM327.926 377.427v43.871h168.666v-43.871h-168.666z"  horiz-adv-x="1024" />

    
    <glyph glyph-name="yaoyiyao" unicode="&#58883;" d="M425.7 638.927l112.435 30.67c5.424 1.48 8.616 7.056 7.128 12.454-1.486 5.398-7.090 8.576-12.515 7.096l-112.434-30.67c-5.425-1.479-8.618-7.057-7.13-12.455 1.487-5.398 7.092-8.575 12.516-7.095v0 0zM824.275 188.249l-6.131 22.257c15.751 16.832 22.643 41.142 16.086 64.953-5.516 20.025-19.408 35.516-36.874 43.801 17.408 17.265 25.261 43.084 18.3 68.353-6.292 22.839-23.226 39.921-44.008 47.443 14.024 17.016 19.835 40.302 13.545 63.141-6.292 22.84-23.223 39.921-44.008 47.442 14.025 17.017 19.836 40.302 13.543 63.141-7.883 28.619-32.467 48.207-60.415 51.248l-20.719 75.207c-8.943 32.461-42.633 51.561-75.255 42.662l-281.931-76.905c-32.621-8.897-51.815-42.426-42.873-74.885l8.35-30.311c-27.773-16.558-49.489-39.577-64.643-60.81-17.779-24.914-30.34-79.611-34.219-108.905-3.877-29.295 21.935-85.046 25.465-92.442 3.531-7.395 18.216-30.884-8.907-59.831-27.122-28.948-94.529-68.887-109.037-83.989-14.508-15.102-43.749-66.177 5.638-109.923 49.388-43.746 145.497-121.559 145.497-121.559 0 0 68.409-50.445 114.308 13.346l45.899 63.793 23.556 39.754c10.472-30.071 42.735-47.306 74.026-38.769l281.931 76.904c32.627 8.898 51.819 42.427 42.876 74.886v0 0zM779.261 215.451l-91.908-25.073c-23.238-6.336-47.238 7.269-53.608 30.392-6.37 23.124 7.302 47.006 30.54 53.345l91.908 25.072c23.236 6.338 47.237-7.268 53.608-30.391 6.368-23.126-7.304-47.007-30.54-53.345v0 0zM790.652 380.791c6.52-23.667-7.475-48.111-31.258-54.598l-111.108-30.309c-0.009 0-0.015-0.002-0.021-0.004-23.782-6.488-48.347 7.436-54.867 31.104-6.518 23.666 7.476 48.11 31.26 54.598l111.128 30.313c23.782 6.488 48.346-7.439 54.866-31.104v0 0zM760.19 491.376c6.52-23.666-7.476-48.111-31.259-54.598l-111.109-30.31c-0.007-0.002-33.351-9.096-33.358-9.099-23.783-6.487-48.348 7.439-54.867 31.106-6.52 23.667 7.476 48.111 31.259 54.598l144.467 39.408c23.781 6.487 48.345-7.439 54.867-31.104v0 0zM729.727 601.959c6.52-23.666-7.475-48.111-31.259-54.598l-111.109-30.308c-0.006-0.002-0.012-0.004-0.021-0.006-23.782-6.488-48.346 7.439-54.866 31.104-6.52 23.667 7.475 48.111 31.258 54.598l111.131 30.315c23.781 6.486 48.345-7.44 54.866-31.106v0 0zM313.109 612.572c-6.707 24.345 7.689 49.491 32.154 56.164l245.827 67.059c24.465 6.673 49.736-7.653 56.441-31.998l13.18-47.841-28.503-7.776c-7.079 10.786-20.578 16.308-33.733 12.72l-215.976-58.915c-6.319-1.724-11.624-5.302-15.501-9.976-9.94 6.438-31.014 17.935-52.714 16.293l-1.176 4.269zM321.699 451.273l91.029-330.444-85.512-120.586c0 0-23.64-36.172-54.175-14.779-30.535 21.394-30.535 21.394-30.535 21.394l-123.497 106.754c0 0-24.352 26.053-1.767 47.075 22.585 21.022 22.585 21.022 22.585 21.022 0 0 58.871 46.524 75.653 61.506 16.782 14.981 53.79 43.282 30.518 100.653-23.272 57.37-24.548 67.425-24.76 84.459-0.211 17.032 15.070 67.274 25.782 88.029 0 0 17.69 28.822 44.353 46.043 9.456 6.043 19.015 9.597 26.268 11.157 14.059 2.515 26.814-1.36 37.672-7.084 1.555-0.603 3.925-1.776 6.915-3.386 0.406-0.218 0.823-0.446 1.252-0.68 0.317-0.174 0.634-0.347 0.962-0.529 0.314-0.175 0.638-0.354 0.961-0.535 0.314-0.177 0.635-0.355 0.958-0.538 0.338-0.19 0.672-0.378 1.019-0.575 0.381-0.215 0.774-0.441 1.166-0.666 0.579-0.331 1.171-0.671 1.777-1.021 0.334-0.193 0.667-0.385 1.010-0.584 0.414-0.242 0.835-0.486 1.259-0.735 0.321-0.188 0.648-0.379 0.975-0.572 0.447-0.262 0.891-0.522 1.347-0.791 0.216-0.127 0.441-0.262 0.66-0.39 0.935-0.552 1.889-1.121 2.866-1.703 0.317-0.189 0.634-0.377 0.954-0.57 0.508-0.304 1.020-0.611 1.537-0.921 0.337-0.202 0.677-0.407 1.018-0.612 1.776-1.069 3.604-2.176 5.479-3.317 0.355-0.216 0.71-0.432 1.068-0.651 0.543-0.331 1.087-0.663 1.636-0.998 0.402-0.247 0.808-0.495 1.213-0.743 39.029-23.911 93.967-59.716 93.967-59.716-7.586-42.939-29.354-61.509-76.852-62.576-2.927-0.065-5.798-0.032-8.611 0.085-10.615 0.028-36.54 6.596-36.54 6.596-22.618 7.287-37.529 18.242-41.61 20.927v0 0zM508.621 75.736c-24.465-6.674-49.736 7.65-56.442 31.995l-78.057 283.357c14.245-2.496 35.44-2.602 35.44-2.602l50.403-182.964c4.471-16.229 21.317-25.783 37.628-21.334l105.047 28.658c0.046-0.177 0.084-0.351 0.133-0.526 1.399-5.081 3.357-9.862 5.756-14.319-15.667-5.537-24.618-22.25-20.153-38.464 4.68-16.985 22.31-26.982 39.381-22.325 12.976 3.54 21.884 14.528 23.359 27.055 11.53-3.143 24.026-3.357 36.391 0.017l98.452 26.855c0.682 0.185 1.347 0.401 2.019 0.605 2.386-21.916-11.477-42.938-33.526-48.951l-245.83-67.057zM149.616 658.056c2.97-0.852 5.984-0.822 8.762-0.064 5.264 1.437 9.675 5.485 11.299 11.086 17.196 59.299 62.116 107.257 120.163 128.288 8.409 3.046 12.744 12.3 9.682 20.668-3.062 8.367-12.347 12.672-20.77 9.634-67.74-24.543-120.156-80.487-140.212-149.65-2.482-8.555 2.477-17.493 11.076-19.962v0 0zM302.503 762.486c-46.704-16.978-82.92-55.568-96.879-103.232-2.504-8.549 2.431-17.499 11.024-19.992 2.981-0.864 6.011-0.837 8.803-0.075 5.25 1.431 9.651 5.463 11.287 11.046 11.084 37.852 39.827 68.491 76.883 81.962 8.406 3.056 12.73 12.314 9.661 20.678-3.069 8.364-12.373 12.668-20.778 9.613v0 0zM942.196 178.567c-3.076 0.294-6.034-0.287-8.625-1.541-4.907-2.375-8.494-7.164-9.057-12.966-5.937-61.432-41.222-116.795-94.392-148.097-7.702-4.533-10.252-14.421-5.696-22.087 4.558-7.663 14.478-10.195 22.198-5.666 62.045 36.526 103.224 101.111 110.15 172.764 0.858 8.865-5.669 16.745-14.578 17.594v0 0zM887.364 167.136c0.88 8.862-5.627 16.756-14.53 17.633-3.092 0.303-6.066-0.277-8.668-1.539-4.896-2.366-8.476-7.136-9.052-12.923-3.896-39.234-26.484-74.613-60.418-94.64-7.698-4.542-10.237-14.434-5.671-22.094 4.564-7.659 14.506-10.187 22.203-5.642 42.768 25.238 71.229 69.8 76.136 119.205v0 0z"  horiz-adv-x="1024" />

    
    <glyph glyph-name="qian" unicode="&#58894;" d="M512 896C229.7 896 0 666.3 0 384s229.7-512 512-512 512 229.7 512 512S794.3 896 512 896z m0-969.1C260-73.1 54.9 132 54.9 384 54.9 636 260 841.1 512 841.1S969.1 636 969.1 384c0-252-205.1-457.1-457.1-457.1z m123.9 724.9L554.6 502c-21.7-40.6-34.9-67.6-39.8-81h-1.4c-14.3 32.5-54.6 109.4-121.1 230.8h-76.5L458 407.5H341.4v-54h136.7v-74.4H341.4v-54.6h136.7v-108.3h67.8V224.5h131.8v54.6H545.9v74.4h131.8v54H564.6l143.6 244.3h-72.3z"  horiz-adv-x="1024" />

    
    <glyph glyph-name="qq" unicode="&#58890;" d="M166.92 444.62l-1.816 5.593-1.451 7.328-1.015 4.016v16.509l1.745 6.464 1.817 6.892 2.324 7.177 3.16 8.023 4.177 8.334 5.877 8.361v5.86l0.587 5.467 0.864 7.453 2.547 8.316 2.324 9.047 1.852 4.176 2.137 3.874 2.76 4.3 2.983 3.18v20.657l1.737 10.641 1.745 12.35 3.125 14.773 4.292 15.36 3.188 8.486 3.161 9.189 3.446 8.602 4.14 9.18 4.221 10.062 4.853 9.465 5.458 10.062 6.901 10.053 3.152 5.734 3.41 4.746 7.374 10.623 7.55 10.614 8.647 10.917 9.224 10.64 10.027 10.463 10.453 10.775 12.636 11.629 8.067 7.043 9.768 7.604 9.91 6.741 10.748 6.465 10.32 5.734 11.612 4.737 12.35 5.904 12.28 4.015 12.27 4.159 13.222 4.15 13.214 3.16 13.944 2.6 14.087 2.289 13.873 1.87 13.944 1.887 14.817 0.828h43.792l14.594-1.852 14.665-1.745 14.986-1.576 13.856-3.303 14.683-3.135 13.766-3.58 15.066-4.033 13.802-4.88 13.214-5.592 14.087-5.903 12.884-6.465 12.493-7.159 12.252-7.907 10.597-7.32 4.861-4.158 5.156-3.018 9.804-8.326 8.272-8.05 8.21-8.334 8.067-9.189 6.625-8.895 7.836-9.19 5.511-9.892 5.566-8.771 5.921-10.205 4.862-8.895 8.263-18.815 4.078-9.741 3.161-9.047 3.152-9.768 2.832-9.19 2.03-7.898 2.547-9.331 4.514-16.651 2.859-14.506 1.852-14.069 1.603-11.326 2.546-17.23 0.57-2.742 2.03-3.161 5.459-8.905 3.481-6.001 3.126-6.34 3.998-6.732 3.49-8.067 2.235-8.317 2.467-9.038 1.905-9.323 0.855-4.585 0.73-5.619v-4.88l-0.73-4.88v-6.045l-1.451-5.868-2.61-11.344-2.973-5.744-2.182-6.464v-1.576l1.033-2.013 2.956-4.746 12.938-19.1 10.231-14.344 4.88-9.626 6.607-10.471 5.725-11.505 6.625-12.315 6.607-13.801 7.426-15.654 4.177-9.599 3.855-9.34 3.33-9.902 3.286-8.905 2.467-9.331 2.546-8.771 3.188-17.079 2.538-17.515 1.745-15.511v-21.825l-1.158-7.773-1.665-13.339-2.333-12.047-3.552-10.89-1.31-4.453-2.466-5.324-2.101-3.74-2.76-4.586-2.476-2.894-3.134-3.722-2.743-3-2.983-2.592-3.562-1.585-3.205-1.585-2.6-0.855h-4.007l-2.565 0.855-4.924 2.449-2.235 1.585-2.324 1.727-2.564 2.289-2.591 2.573-4.301 4.755-5.067 6.732-3.998 6.918-3.989 5.566-3.9 6.464-5.467 11.496-6.18 11.932-0.721 0.418h-1.015l-2.547-1.879-1.451-3.125-2.396-3.9-4.211-11.63-6.314-16.508-8.13-19.812-6.125-9.91-6.43-10.33-7.577-11.62-8.058-11.37-4.14-5.147-5.023-5.584-11.504-11.361 1.015-1.007 1.567-1.585 5.734-3.437 23.97-11.477 10.446-5.877 9.964-5.744 9.883-7.185 8.78-7.48 4.283-3.321 3.206-3.874 3.25-4.434 2.76-4.889 1.46-4.033 1.817-4.871 0.73-4.14 0.855-4.907-0.855-3.303v-3.268l-0.73-3.49-1.817-3.117-0.73-2.467-1.585-2.974-4.372-5.93-3.989-4.755-3.125-3.544-2.61-2.627-6.606-4.87-7.489-4.177-7.987-4.033-8.504-3.838-9.58-3.704-5.076-1.603-4.595-1.309-11.032-2.573-11.47-2.431-11.46-2.467-12.519-2.003-12.911-0.543-13.232-1.594h-41.031l-14.826 0.864-13.793 1.273-14.799 2.003-14.745 1.594-15.547 2.173-15.03 3.704-14.684 2.912-14.577 4.131-14.986 5.307L569.344-52l-7.702 2.59-6.892 2.476-4.354 1.665-4.292 0.873H533.914l-14.096 1.024-7.15 0.73-9.19 1.006-5.885-5.298-8.059-5.066-10.89-5.316-12.065-6.616-7.328-3.562-7.622-2.867-16.928-6.892-9.189-2.297-9.626-2.61-13.356-2.555-8.352-0.712-8.87-0.73-9.215-1.024-10.748-0.437h-43.907l-24.807 0.437-24.033 2.466-12.2 1.692-11.77 1.736-11.47 1.737-11.477 2.297-10.641 3.446-10.64 2.43-9.59 3.883-9.074 3.562-8.424 4.07-7.337 4.433-7.337 5.29-2.467 2.609-3.267 3.134-2.476 2.76-2.244 3.117-2.039 3.196-1.594 3.135-2.288 6.75-0.828 3.454-1.024 3.882v3.544l1.024 4.052v4.016l0.828 4.042v8.014l0.4 4.328 1.888 4.906 1.594 4.853 2.903 5.895 2.11 2.28 1.746 2.572L161.48 36l3.624 2.903 3.42 2.004 3.16 2.573 5.05 1.603 3.989 2.395 5.013 2.609 5.734 1.7 5.735 1.764 6.616 1.407 6.322 0.872 7.47 0.989 8.068 0.587 2.146 0.73h0.427l1.024 0.873v0.97l-1.451 2.022-4.328 2.012-10.747 9.341-7.195 5.726-8.352 7.319-8.415 8.174-8.789 10.49-10.026 11.77-3.775 6.332-5.013 6.607-4.283 7.622-3.856 8.308-5.218 7.898-3.42 9.047-4.024 9.038-4.043 10.053-2.965 9.616-2.769 11.914-0.873 0.455h-0.828l-0.445 0.854h-1.015l-1.7-0.854-0.873-0.455-1.158-1.994-0.436-2.44-0.873-2.155-1.523-3.58-4.941-8.788-2.547-5.298-4.025-4.595-4.327-5.583-4.72-6.188-5.013-5.467-5.877-5.299-5.485-5.013-5.992-3.909-6.616-4.158-6.314-2.44-7.48-1.86-7.336-0.713h-1.746l-1.674 0.712-1.3 2.894-2.181 1.407-2.832 6.9-1.745 3.74-1.888 5.325-1.558 5.566-0.837 5.476-2.324 12.484-0.873 7.346v24.104l0.873 17.942 1.451 9.19 1.71 9.474 1.558 10.195 2.76 9.474 3.126 10.926 3.197 10.605 4.283 10.926 4.024 10.48 5.566 10.632 5.226 11.46 6.314 10.765 7.453 11.647 7.586 10.472 7.916 11.62 6.607 8.05 8.468 9.331 8.896 9.332 4.14 4.443 5.04 5.031 7.301 6.34 7.49 6.438 12.19 10.917 9.224 6.731z"  horiz-adv-x="1024" />

    
    <glyph glyph-name="shouye" unicode="&#58887;" d="M1024 440.888889L512 839.111111 0 440.888889v-56.888889h113.777778v-455.111111h341.333333v341.333333h113.777778v-341.333333h341.333333V384h113.777778V440.888889z"  horiz-adv-x="1024" />

    
    <glyph glyph-name="jia" unicode="&#58959;" d="M567-8.804V775.464c0 30.987-25.093 56.081-56.024 56.081-30.93 0-56.023-25.094-56.023-56.081v-784.268c0-30.93 25.094-56.023 56.023-56.023 30.93 0 56.023 25.153 56.023 56.023zM903.139 439.382H118.842c-30.988 0-56.052-25.093-56.052-56.023 0-30.93 25.064-56.023 56.052-56.023H903.14c30.93 0 56.023 25.093 56.023 56.023 0 30.93-25.152 56.023-56.023 56.023z"  horiz-adv-x="1024" />

    
    <glyph glyph-name="shouhuodizhi" unicode="&#59038;" d="M512.12689-94.880695c-17.513886 0-34.096563 6.282077-46.682205 17.682731-13.579273 11.590989-343.318206 296.466132-343.318207 550.20616 0 214.96798 174.905542 389.873522 389.873522 389.873522s389.873522-174.905542 389.873522-389.873522c0-253.739005-329.717444-538.614148-343.740832-550.608319-11.909238-10.956539-28.449959-17.280572-46.0058-17.280572z m-0.12689 914.442792c-191.087083 0-346.5539-155.466817-346.5539-346.553901 0-233.983055 325.31825-514.88163 328.5959-517.695722 10.06831-9.031701 26.460652-8.714476 35.344996-0.50756 3.871167 3.320629 329.167928 284.409538 329.167928 518.203282C858.5539 664.095279 703.087083 819.562097 512 819.562097zM512 278.071436c-107.494223 0-194.936761 87.442538-194.936761 194.93676s87.442538 194.936761 194.936761 194.936761 194.936761-87.442538 194.936761-194.936761-87.442538-194.936761-194.936761-194.93676z m0 346.5539c-83.59286 0-151.61714-68.025303-151.61714-151.61714S428.40714 321.390034 512 321.390034s151.61714 68.025303 151.61714 151.617139-68.02428 151.618163-151.61714 151.618163z"  horiz-adv-x="1024" />

    
    <glyph glyph-name="yishouhuo" unicode="&#59036;" d="M271.74912 279.78752l168.36608-149.30944c0.78336-1.19296 1.85344-2.92352 3.72736-4.57216 7.93088-6.9888 18.432-10.86976 30.35136-10.86976h1.22368c11.27936 0 21.85728 3.88096 29.86496 10.94144 1.85344 1.72032 2.9952 3.4304 3.9168 5.0688l267.10016 301.16864c8.31488 7.36768 12.89216 17.29024 12.89216 27.87328 0 10.56256-4.57728 20.42368-12.89216 27.8528-16.14336 14.15168-42.752 15.00672-60.48768-0.86528l-242.19136-277.44768-142.20288 125.96736c-16.14848 14.19264-43.66336 14.19264-59.648 0-8.3712-7.36256-12.93824-17.36704-12.93824-27.94496-0.01024-10.5728 4.5568-20.50048 12.91776-27.86304zM1023.79008 826.91584C1021.6448 865.2544 989.70624 896 950.86592 896H73.1392C34.31424 896 2.3552 865.2544 0.20992 826.91584H0.11776v-1.72032c-0.02048-0.78848-0.11776-1.5616-0.11776-2.3552h0.11776v-146.05824H0v-731.6224C0-95.05792 32.9216-128 73.13408-128h877.72672c40.20224 0 73.1392 32.94208 73.1392 73.15968V826.91584h-0.20992z m-72.92928-881.75616H73.13408V603.62752h877.72672v-658.46784z m0.11776 731.6224H73.13408V822.84032h877.84448v-146.05824z"  horiz-adv-x="1024" />

    
    <glyph glyph-name="daifukuan" unicode="&#58923;" d="M866.925568 114.680135H691.587168c-31.80845 0-57.687864 25.939789-57.687864 57.818847V373.788427c0 31.891338 25.879414 57.831126 57.687864 57.831127h308.011072c13.46364 0 24.38027-10.916631 24.380271-24.38027s-10.916631-24.38027-24.380271-24.38027H691.587168c-4.928243 0-8.928347-4.071735-8.928347-9.070587V172.498982c0-4.999874 4.000104-9.05933 8.928347-9.05933h175.3384c13.46364 0 24.38027-10.916631 24.380271-24.38027s-10.916631-24.379247-24.380271-24.379247zM936.934039-104.739227H87.064938c-47.998177 0-87.044472 38.820144-87.044472 86.544075V564.482561c0 47.723931 39.046295 86.556355 87.044472 86.556355h849.869101c47.998177 0 87.044472-38.8314 87.044472-86.556355v-582.677713c0-47.724954-39.046295-86.544075-87.044472-86.544075zM87.064938 602.278375c-21.106714 0-38.283931-16.95209-38.283932-37.795814v-582.677713c0-20.832468 17.178241-37.784558 38.283932-37.784558h849.869101c21.106714 0 38.283931 16.95209 38.283931 37.784558V564.482561c0 20.844747-17.178241 37.795814-38.283931 37.795814H87.064938zM80.148411 603.302705L66.173119 650.014586 797.035802 868.708424c13.808494 3.833305 27.78481 1.143033 38.807864-7.237845 11.106965-8.452509 17.475-21.320585 17.475-35.308157v-199.503777h-48.759517V820.06761L80.148411 603.302705z"  horiz-adv-x="1024" />

    
    <glyph glyph-name="shequ" unicode="&#58901;" d="M424.228571 676.571429C190.171429 676.571429 0 515.657143 0 325.485714c0-102.4 51.2-182.857143 131.657143-256l-36.571429-117.028571c-7.314286-21.942857 14.628571-43.885714 43.885715-36.571429l175.542857 65.828572c36.571429-7.314286 65.828571-14.628571 109.714285-14.628572 234.057143 0 424.228571 160.914286 424.228572 351.085715S665.6 676.571429 424.228571 676.571429z m0-636.342858c-29.257143 0-58.514286 7.314286-95.085714 7.314286h-7.314286c-7.314286 0-14.628571 0-14.628571-7.314286l-131.657143-51.2 21.942857 73.142858c7.314286 21.942857 0 36.571429-14.628571 51.2-73.142857 65.828571-109.714286 138.971429-109.714286 219.428571 0 153.6 160.914286 277.942857 351.085714 277.942857 197.485714 0 351.085714-131.657143 351.085715-285.257143 0-153.6-153.6-285.257143-351.085715-285.257143zM753.371429 896C577.828571 896 416.914286 822.857143 351.085714 698.514286h73.142857C490.057143 786.285714 607.085714 822.857143 746.057143 822.857143c204.8 0 343.771429-109.714286 343.771428-270.628572 0-80.457143-36.571429-146.285714-102.4-197.485714-14.628571-14.628571-14.628571-36.571429-7.314285-51.2l7.314285-65.828571-87.771428 36.571428c0-14.628571-7.314286-58.514286-7.314286-73.142857l138.971429-58.514286c21.942857-14.628571 43.885714 14.628571 36.571428 36.571429l-36.571428 117.028571c87.771429 58.514286 138.971429 153.6 138.971428 256C1170.285714 742.4 980.114286 896 753.371429 896zM577.828571 384H219.428571c-21.942857 0-36.571429 14.628571-36.571428 36.571429S197.485714 457.142857 219.428571 457.142857h358.4c21.942857 0 36.571429-14.628571 36.571429-36.571428s-14.628571-36.571429-36.571429-36.571429zM577.828571 237.714286H219.428571c-21.942857 0-36.571429 14.628571-36.571428 36.571428S197.485714 310.857143 219.428571 310.857143h358.4c21.942857 0 36.571429-14.628571 36.571429-36.571429s-14.628571-36.571429-36.571429-36.571428z"  horiz-adv-x="1170" />

    
    <glyph glyph-name="yonghu" unicode="&#58884;" d="M521.984 372.544c-131.52 0-238.528 102.656-238.528 228.928 0 126.144 107.008 228.864 238.528 228.864s238.528-102.656 238.528-228.864c0-126.272-107.008-228.928-238.528-228.928z m0 404.736c-101.056 0-183.168-78.848-183.168-175.808S420.992 425.6 521.984 425.6c101.056 0 183.168 78.848 183.168 175.872 0.064 96.896-82.112 175.808-183.168 175.808zM957.696-62.4h-55.68c0 232.832-174.4 420.992-388.672 420.992-214.272 0-388.608-188.16-388.608-420.992h-55.68c0 65.536 11.776 128.064 34.944 187.52 22.4 57.344 54.4 108.8 95.168 153.024s88.32 78.912 141.248 103.232a413.504 413.504 0 0 0 345.856 0c52.992-24.192 100.48-59.072 141.312-103.296a482.88 482.88 0 0 0 95.168-153.024 511.36 511.36 0 0 0 34.944-187.456zM103.872 5.824H943.36v-60.416H103.872v60.416z"  horiz-adv-x="1024" />

    
    <glyph glyph-name="shangcheng" unicode="&#58921;" d="M92.566036 407.413707c15.446965-6.446371 30.89393-9.487112 46.340896-9.487112 43.300154 0 73.707566 25.420596 91.222235 45.367858 17.879558-20.433781 48.773489-46.340896 93.16831-46.827414h1.946074c44.88134 0 78.207863 24.447559 96.69557 42.813636 7.419408-8.027557 17.879558-16.906521 29.920893-24.934078l2.432593-1.459556c1.946074-0.973037 3.52726-2.432593 5.473334-3.52726 1.459556-0.973037 3.040741-1.459556 4.500297-2.432592l1.459556-0.973038 3.040741-1.459555c1.459556-0.486519 3.040741-1.459556 4.500297-1.946075l1.459556-0.486518c1.459556-0.486519 2.432593-0.973037 4.013778-1.459556 0.973037-0.486519 1.946074-0.486519 3.52726-0.973037 2.432593-0.973037 4.986816-1.459556 8.027557-2.432593 7.419408-1.946074 14.473928-2.554223 21.406818-2.554223h0.486518c6.93289 0 13.987409 0.973037 20.433781 2.554223 0.486519 0 0.973037 0 1.459556 0.486518 2.432593 0.486519 4.986816 1.459556 8.027556 2.554223 0.973037 0.486519 1.946074 0.486519 3.040742 0.973037 1.459556 0.486519 2.432593 0.973037 4.013778 1.459556l1.459556 0.486518c1.459556 0.486519 3.040741 0.973037 4.500297 1.946075l3.040741 1.459556 1.459556 0.973037c1.459556 0.973037 3.040741 1.459556 4.500297 2.432593 1.946074 0.973037 3.52726 1.946074 5.959852 3.527259l1.459556 0.973038c11.919705 8.027557 21.893337 16.906521 29.920893 24.934077 18.487706-17.879558 51.81423-42.813636 96.69557-42.813636h1.946074c43.786673 0.486519 75.167122 26.393633 93.16831 46.827415 17.39304-20.433781 47.800451-45.367858 91.222235-45.367859 14.960447 0 30.89393 3.040741 46.340896 9.487113 83.681197 33.934672 84.654234 114.575128 73.707566 152.401948-0.486519 0.973037-0.486519 1.946074-0.973037 3.040741l-111.656016 237.177812c-3.52726 6.93289-10.46015 11.433187-17.879558 11.433187h-282.180782c-0.973037 0-1.946074 0.486519-3.040741 0.486518-0.486519 0-1.459556-0.486519-1.946074-0.486518H433.858826c-0.486519 0-1.459556 0.486519-1.946074 0.486518-0.973037 0-1.946074-0.486519-3.040741-0.486518H149.367082c-7.419408 0-14.960447-4.500297-17.879559-11.433187l-111.656016-237.177812c-0.486519-0.973037-0.973037-1.946074-0.973037-3.040741-10.946668-37.94845-9.973631-118.710536 73.707566-152.523578z m232.677515 29.434375h-1.459555c-38.313339 0.486519-64.220454 32.353486-73.221048 45.367858l47.313933 289.478561H410.505934l-8.027557-294.951895c-9.487112-11.068298-37.340302-39.894524-77.234826-39.894524z m224.649959 10.460149l-0.973037-0.486518c-1.459556-0.973037-2.554223-1.459556-4.013779-2.432593-0.973037-0.486519-1.946074-0.973037-3.527259-1.946075l-0.973038-0.486518-1.459555-0.486519c-0.973037-0.486519-1.459556-0.486519-2.554223-0.973037l-0.973037-0.486518-0.973037-0.486519c-0.486519-0.486519-1.459556-0.486519-2.432593-0.973037l-1.459556-0.486519c-1.459556-0.486519-2.432593-0.973037-4.013778-1.459556h-0.973038c-4.500297-0.973037-8.514075-1.459556-11.919705-1.459555h-1.459556c-4.013778 0-8.027557 0.486519-12.406224 1.459555l-4.500297 1.459556-3.040741 0.486519c-0.486519 0-1.459556 0.486519-1.946074 0.973037l-0.973037 0.486519-0.973038 0.486518c-0.973037 0.486519-1.459556 0.486519-2.432593 0.973037l-3.527259 1.946075-3.040742 1.459555c-1.459556 0.973037-2.554223 1.459556-4.013778 2.432593l-1.459556 0.973038c-14.473928 9.487112-25.907115 21.893337-31.380449 28.339707l8.027557 295.438413H569.840772l8.514075-299.452191c-5.959853-7.419408-15.933484-17.39304-28.461337-25.298967z m150.455873-10.460149h-1.459555c-48.28697 0-80.153938 44.394821-80.762086 44.394821l-0.486519 0.486519-8.027556 289.965079h112.629053L770.164801 477.594014c-10.46015-14.352298-34.907709-40.259413-69.815418-40.745932z m267.098706 110.561349c2.432593-10.46015 16.420002-75.77527-50.841193-103.141941-10.946668-4.500297-21.406818-6.446371-31.380449-6.446371-46.340896 0-73.221048 48.773489-73.707566 48.773488-0.973037 1.459556-1.946074 3.040741-3.52726 4.500297l-45.367858 280.477967H861.751925l105.696164-224.16344z m-910.762799 0L162.381454 771.572871h95.600902L211.641461 484.648533c-5.959853-9.973631-31.866968-46.340896-72.248011-46.340896-9.973631 0-20.433781 1.946074-31.380449 6.446372-67.261195 26.393633-54.246823 90.735717-51.327711 102.655422z m931.683098-551.46882h-80.153937V334.679178c0 10.946668-9.000594 19.947262-19.947263 19.947262-10.946668 0-19.947262-9.000594-19.947262-19.947262V-4.059389h-476.788217V334.679178c0 10.946668-9.000594 19.947262-19.947262 19.947262-10.946668 0-19.947262-9.000594-19.947262-19.947262V-4.059389H157.394638V334.679178c0 10.946668-9.000594 19.947262-19.947262 19.947262-10.946668 0-19.947262-9.000594-19.947262-19.947262V-4.059389h-76.261789c-10.946668 0-19.947262-9.000594-19.947262-19.947263s9.000594-19.947262 19.947262-19.947262H988.246758c10.946668 0 19.947262 9.000594 19.947263 19.947262s-8.878964 19.947262-19.825633 19.947263z m0 0M770.65132 308.772063c-7.419408 8.027557-20.433781 8.027557-28.339708 0L570.935439 140.315002c-8.027557-7.419408-8.027557-20.433781 0-28.339708 4.013778-4.013778 9.000594-5.959853 13.987409-5.959853s9.973631 1.946074 13.98741 5.473334l171.376173 168.335432c8.392446 8.514075 8.392446 21.406818 0.364889 28.947856z m-102.168904-257.611593c4.986816 0 9.973631 1.946074 13.987409 5.473334l98.155126 96.087422c8.027557 7.419408 8.027557 20.433781 0 28.339708-7.419408 8.027557-20.433781 8.027557-28.339708 0l-97.668607-96.209051c-8.027557-7.419408-8.027557-20.433781 0-28.339708 3.40563-3.284 8.878964-5.351704 13.86578-5.351705zM274.888877 221.077088v-75.775271c0-10.946668 9.000594-19.947262 19.947263-19.947262 10.946668 0 19.947262 9.000594 19.947262 19.947262v75.775271c0 10.946668-9.000594 19.947262-19.947262 19.947262-10.946668 0-19.947262-9.000594-19.947263-19.947262z m0 0"  horiz-adv-x="1024" />

    
    <glyph glyph-name="xiangzuo-copy" unicode="&#58888;" d="M238.0154 396.77583334l382.9551-412.52029999 176.68844946 0-382.9551 412.52029999 382.9551 382.9404L620.97044183 779.71623334 238.0154 396.77583334zM238.0154 396.77583334"  horiz-adv-x="1000" />

    
    <glyph glyph-name="shanchu" unicode="&#58930;" d="M802.133333 768H221.866667C170.666667 768 128 725.333333 128 674.133333V640h768v34.133333c0 51.2-42.666667 93.866667-93.866667 93.866667z m-170.666666 59.733333L648.533333 725.333333H375.466667L392.533333 827.733333h238.933334zM640 896H384c-25.6 0-51.2-25.6-51.2-51.2l-25.6-128c0-25.6 17.066667-51.2 42.666667-51.2h315.733333c25.6 0 42.666667 25.6 42.666667 51.2L691.2 844.8C691.2 870.4 665.6 896 640 896z m179.2-324.266667H204.8c-34.133333 0-59.733333-25.6-59.733333-59.733333l51.2-580.266667c0-34.133333 34.133333-59.733333 68.266666-59.733333h477.866667c34.133333 0 68.266667 25.6 68.266667 59.733333l51.2 580.266667c17.066667 34.133333-8.533333 59.733333-42.666667 59.733333zM384 0H290.133333l-34.133333 443.733333H384v-443.733333z m196.266667 0H452.266667V443.733333h128v-443.733333z m153.6 0H640V443.733333h128l-34.133333-443.733333z"  horiz-adv-x="1024" />

    


  </font>
</defs>
</svg>
